<svg width="378" height="378" xmlns="http://www.w3.org/2000/svg" xmlns:xlink="http://www.w3.org/1999/xlink" overflow="hidden"><g><rect x="0" y="0" width="378" height="378" fill="#FFFFFF"/><path d="M88.0551 62.1275C86.6578 62.1418 85.563 62.5452 84.7709 63.3374 83.9787 64.1296 83.5753 65.2244 83.5609 66.6216L83.5609 311.378C83.5753 312.776 83.9787 313.87 84.7709 314.663 85.563 315.455 86.6578 315.858 88.0551 315.873L125.737 315.873C127.134 315.858 128.228 315.455 129.021 314.663 129.813 313.87 130.216 312.776 130.231 311.378L130.231 207.668 180.111 207.668 180.111 233.868C180.116 234.376 180.263 234.775 180.551 235.063 180.839 235.351 181.237 235.497 181.745 235.503L195.448 235.503C195.956 235.497 196.354 235.351 196.642 235.063 196.93 234.775 197.077 234.376 197.082 233.868L197.082 207.668 247.769 207.668 247.769 311.378C247.784 312.776 248.187 313.87 248.979 314.663 249.772 315.455 250.866 315.858 252.263 315.873L289.945 315.873C291.342 315.858 292.437 315.455 293.229 314.663 294.021 313.87 294.425 312.776 294.439 311.378L294.439 66.6216C294.425 65.2244 294.021 64.1296 293.229 63.3374 292.437 62.5452 291.342 62.1418 289.945 62.1275L252.263 62.1275C250.866 62.1418 249.772 62.5452 248.979 63.3374 248.187 64.1296 247.784 65.2244 247.769 66.6216L247.769 163.764 219.273 163.764 230.521 145.243C230.827 144.664 230.874 144.188 230.662 143.813 230.45 143.439 230.026 143.245 229.39 143.232L213.802 143.232C212.921 143.232 212.293 143.609 211.916 144.363L200.898 163.764 176.607 163.764 165.529 144.363C165.152 143.609 164.523 143.232 163.643 143.232L147.804 143.232C147.167 143.245 146.743 143.439 146.531 143.813 146.319 144.188 146.366 144.664 146.673 145.243L157.894 163.764 130.231 163.764 130.231 66.6216C130.216 65.2244 129.813 64.1296 129.021 63.3374 128.228 62.5452 127.134 62.1418 125.737 62.1275ZM63.0013 0 314.999 0C349.793 0 378 28.2066 378 63.0013L378 314.999C378 349.793 349.793 378 314.999 378L63.0013 378C28.2066 378 0 349.793 0 314.999L0 63.0013C0 28.2066 28.2066 0 63.0013 0Z" fill="#215F9A" fill-rule="evenodd"/></g></svg>